<svg xmlns="http://www.w3.org/2000/svg" width="177.709" height="148.663" viewBox="0 0 177.709 148.663"><path d="M33.75,165.916c9.257-25.3,34.853-42.289,63.635-42.289,28.819,0,54.378,16.993,63.635,42.289l.075.21h20.275v-2.277l-8.432-.911c-5.209-.561-6.3-2.7-7.72-5.431l-.337-.666C152.7,132.561,126.2,116.9,97.384,116.9S42.069,132.6,29.89,156.842l-.337.666c-1.424,2.7-2.511,4.87-7.72,5.431l-8.432.911v2.277H33.675Z" transform="translate(-8.53 -116.9)"/><path d="M161.194,374.535l-.075.21c-9.257,25.3-34.853,42.289-63.635,42.289h0c-28.819,0-54.378-16.993-63.635-42.324l-.075-.21H13.5v2.277l8.432.911c5.209.561,6.3,2.7,7.72,5.431l.337.666c12.18,24.28,38.676,39.942,67.495,39.977h0c28.819,0,55.315-15.7,67.495-39.942l.337-.666c1.424-2.7,2.511-4.87,7.72-5.431l8.432-.911v-2.278Z" transform="translate(-8.595 -275.098)"/><g transform="translate(0 64.626)"><rect width="4.31" height="19.41" transform="translate(35.899)"/><path d="M23.64,307.71V288.3h-4.31v14.47L5.036,288.3H-.5v19.41H3.81V293.135l14.4,14.575Z" transform="translate(0.5 -288.3)"/><path d="M320.223,288.3,308.1,307.71h5.22l2.172-3.469h14.12l2.172,3.469h5.22L324.883,288.3Zm7.182,12.263H317.7l4.87-7.813Z" transform="translate(-191.402 -288.3)"/><path d="M242.439,303.646a6.76,6.76,0,0,1-.876.035H224.29v3.994h17.553c.14,0,1.156,0,1.4-.035a5.71,5.71,0,0,0,5.22-5.921,5.629,5.629,0,0,0-4.94-5.851,12.366,12.366,0,0,0-1.4-.07H230.667a5.4,5.4,0,0,1-1.261-.1,1.672,1.672,0,0,1-1.226-1.682,1.719,1.719,0,0,1,1.261-1.682,5.006,5.006,0,0,1,1.191-.07H247.2V288.3H230.387c-.7,0-1.226.035-1.682.07a5.722,5.722,0,0,0-.07,11.317,17.766,17.766,0,0,0,1.822.07h11.177a5.438,5.438,0,0,1,.806.035,1.873,1.873,0,0,1,1.717,1.927,2.069,2.069,0,0,1-1.717,1.927" transform="translate(-139.166 -288.3)"/><path d="M150.539,303.646a6.758,6.758,0,0,1-.876.035H132.39v3.994h17.553c.14,0,1.156,0,1.4-.035a5.71,5.71,0,0,0,5.22-5.921,5.629,5.629,0,0,0-4.94-5.851,12.368,12.368,0,0,0-1.4-.07H138.767a5.4,5.4,0,0,1-1.261-.1,1.672,1.672,0,0,1-1.226-1.682,1.719,1.719,0,0,1,1.261-1.682,5.006,5.006,0,0,1,1.191-.07H155.3V288.3H138.487c-.7,0-1.226.035-1.682.07a5.722,5.722,0,0,0-.07,11.317,17.765,17.765,0,0,0,1.822.07h11.177a5.438,5.438,0,0,1,.806.035,1.873,1.873,0,0,1,1.717,1.927,2.069,2.069,0,0,1-1.717,1.927" transform="translate(-81.942 -288.3)"/><path d="M430.74,307.71V288.3h-4.31v14.47L412.136,288.3H406.6v19.41h4.31V293.135l14.4,14.575Z" transform="translate(-253.031 -288.3)"/></g></svg>